<svg width="512" height="512" viewBox="0 0 512 512" fill="none" xmlns="http://www.w3.org/2000/svg" xmlns:xlink="http://www.w3.org/1999/xlink" class=""><rect id="r2v" width="512" height="512" x="0" y="0" rx="128" fill="url(#r30)" stroke="#FFFFFF" stroke-width="0" stroke-opacity="100%" paint-order="stroke"></rect><clipPath id="clip"><use xlink:href="#r2v"></use></clipPath><defs><radialGradient id="r30" cx="50%" cy="50%" r="100%" fx="50%" fy="0%" gradientUnits="objectBoundingBox"><stop stop-color="#4d4d4d"></stop><stop offset="1" stop-color="#000000"></stop></radialGradient><radialGradient id="r31" cx="0" cy="0" r="1" gradientUnits="userSpaceOnUse" gradientTransform="translate(256) rotate(90) scale(512)"><stop stop-color="white"></stop><stop offset="1" stop-color="white" stop-opacity="0"></stop></radialGradient></defs><svg xmlns="http://www.w3.org/2000/svg" fill="none" viewBox="0 0 16 16" width="352" height="352" x="80" y="80" alignment-baseline="middle" style="color: rgb(230, 230, 230);"><path fill="currentColor" fill-rule="evenodd" d="M12.652 5.303c.307.09.6.191.882.294C15.13 6.21 16 7.054 16 7.999c0 .946-.869 1.79-2.466 2.403a8.896 8.896 0 0 1-.882.294c.076.306.14.613.192.907.268 1.674-.026 2.863-.844 3.336-.243.14-.511.204-.818.204-.895 0-2.032-.665-3.182-1.776-1.137 1.111-2.275 1.776-3.182 1.776-.307 0-.575-.064-.818-.204-.818-.46-1.112-1.649-.843-3.336.05-.294.115-.6.191-.907-.306-.09-.6-.192-.882-.294C.882 9.788 0 8.945 0 7.999c0-.945.869-1.789 2.466-2.402.282-.115.576-.205.882-.294-.076-.307-.14-.614-.191-.908-.269-1.674.025-2.862.843-3.335.243-.14.511-.205.818-.205.894 0 2.032.665 3.182 1.777C9.15 1.52 10.287.855 11.182.855c.307 0 .575.064.818.205.818.46 1.112 1.649.844 3.335-.052.294-.116.601-.192.908Zm-.524-1.01c.217-1.342.038-2.287-.486-2.594a.863.863 0 0 0-.447-.115c-.78 0-1.738.639-2.684 1.572a18.44 18.44 0 0 1 1.33 1.661c.74.064 1.443.166 2.108.32a7.68 7.68 0 0 0 .179-.844ZM9.43 10.504c.281-.409.55-.818.78-1.227.243-.434.46-.856.677-1.278a20.613 20.613 0 0 0-.677-1.278c-.23-.409-.486-.818-.767-1.227-.46-.038-.933-.05-1.431-.05-.486 0-.959.012-1.432.05-.28.41-.55.818-.78 1.227-.242.422-.472.857-.676 1.278.204.422.434.856.677 1.278.23.41.486.818.767 1.227.46.038.933.051 1.431.051.486 0 .958-.013 1.431-.051Zm2.326-.332a15.08 15.08 0 0 0-.485-1.317c-.05.09-.1.181-.149.274-.092.17-.186.345-.286.519a9.592 9.592 0 0 1-.46.767c.486-.064.946-.141 1.38-.243Zm-4.639 1.086c.281.37.575.729.882 1.06.307-.332.6-.69.882-1.06-.294.013-.588.026-.882.026-.294 0-.588-.013-.882-.026Zm-2.875-1.099c.434.102.894.179 1.38.243l-.115-.19c-.115-.19-.23-.379-.345-.59-.114-.189-.22-.385-.325-.578l-.11-.201c-.191.447-.345.894-.485 1.316Zm0-4.332c.14.434.294.869.485 1.316.05-.09.1-.18.149-.273.092-.17.186-.345.286-.52a9.572 9.572 0 0 1 .46-.766c-.486.064-.946.14-1.38.243ZM8.882 4.74C8.6 4.37 8.307 4.012 8 3.68c-.307.332-.6.69-.882 1.06.294-.012.588-.025.882-.025.294 0 .588.013.882.025Zm1.495.857.46.766c.153.256.294.524.434.793.192-.447.346-.895.486-1.316a14.048 14.048 0 0 0-1.38-.243Zm-6.02-3.898c-.523.307-.702 1.252-.485 2.594l.015.077c.046.245.095.5.164.767.665-.14 1.368-.256 2.109-.32a16.8 16.8 0 0 1 1.329-1.661C6.53 2.21 5.572 1.584 4.805 1.584a.863.863 0 0 0-.447.115ZM2.723 6.287C1.444 6.76.716 7.399.716 7.999c0 .716 1.06 1.483 2.824 1.994.192-.64.46-1.304.767-1.981a18.626 18.626 0 0 1-.767-1.994 7.663 7.663 0 0 0-.818.269Zm1.15 5.418c-.217 1.342-.038 2.288.486 2.595a.863.863 0 0 0 .447.115c.78 0 1.738-.64 2.684-1.572a18.44 18.44 0 0 1-1.33-1.662 15.191 15.191 0 0 1-2.108-.32c-.077.295-.14.576-.179.844Zm7.77 2.595c.524-.307.703-1.253.486-2.595l-.015-.076c-.046-.245-.095-.501-.164-.767-.665.14-1.367.255-2.109.32a16.798 16.798 0 0 1-1.329 1.66c.959.946 1.917 1.573 2.684 1.573.166 0 .32-.039.447-.115Zm.818-4.32c.281-.077.562-.166.818-.268 1.265-.473 2.006-1.112 2.006-1.713 0-.715-1.06-1.482-2.824-1.993-.192.639-.46 1.303-.767 1.98.307.678.563 1.355.767 1.994ZM9.457 8a1.457 1.457 0 1 1-2.914 0 1.457 1.457 0 0 1 2.914 0Z" clip-rule="evenodd"></path></svg></svg>